<?xml version="1.0" standalone="no"?>
<!DOCTYPE svg PUBLIC "-//W3C//DTD SVG 20010904//EN"
 "http://www.w3.org/TR/2001/REC-SVG-20010904/DTD/svg10.dtd">
<svg version="1.0" xmlns="http://www.w3.org/2000/svg"
 width="1000.000000pt" height="750.000000pt" viewBox="0 0 1000.000000 750.000000"
 preserveAspectRatio="xMidYMid meet">

<g transform="translate(0.000000,750.000000) scale(0.100000,-0.100000)"
fill="#000000" stroke="none">
<path d="M4805 6663 c-725 -60 -1336 -333 -1839 -823 -1076 -1047 -1185 -2723
-252 -3905 99 -125 341 -368 466 -467 889 -705 2091 -836 3105 -338 485 238
898 611 1195 1080 216 341 368 777 422 1210 17 136 17 524 0 660 -85 685 -379
1282 -864 1756 -496 485 -1109 764 -1808 824 -107 9 -333 11 -425 3z m540
-1276 c293 -65 489 -162 659 -326 175 -170 272 -365 306 -619 19 -139 8 -372
-23 -493 -88 -339 -288 -572 -615 -715 -42 -19 -76 -39 -74 -44 1 -6 175 -256
387 -555 212 -299 385 -547 385 -550 0 -3 -116 -5 -257 -5 l-258 0 -356 508
-356 507 -102 0 c-55 0 -290 -1 -521 -3 l-420 -2 0 -505 0 -505 -240 0 -240 0
0 1670 0 1671 803 -4 802 -3 120 -27z"/>
<path d="M4100 4254 l0 -756 513 5 c480 4 518 5 610 26 313 69 495 215 584
466 26 76 28 88 27 260 0 169 -1 185 -27 260 -79 235 -247 381 -520 450 -151
38 -267 45 -743 45 l-444 0 0 -756z"/>
</g>
</svg>
